<svg class="svg-icon" style="width: 1em; height: 1em;vertical-align: middle;fill: currentColor;overflow: hidden;" viewBox="0 0 1024 1024" version="1.1" xmlns="http://www.w3.org/2000/svg"><path d="M335.786667 938.666667s-47.786667-53.76-93.013334-98.133334c-48.213333-13.226667-96.853333-25.6-145.92-37.12L196.266667 631.466667c52.48 68.266667 144.64 127.146667 231.68 148.48L335.786667 938.666667zM789.333333 832c-45.226667 44.373333-101.546667 106.666667-101.546666 106.666667l-91.306667-158.72c87.04-21.333333 170.666667-79.786667 223.146667-148.48l107.52 171.946666c-0.426667 0.426667-73.386667 10.666667-137.813334 28.586667zM511.573333 85.333333c-173.226667 0-322.133333 157.44-322.133333 331.093334s148.906667 314.026667 322.133333 314.026666 322.133333-148.906667 322.133334-322.56S684.8 85.333333 511.573333 85.333333z m186.026667 308.48L641.28 452.266667c-7.68 7.68-11.52 18.773333-8.96 29.866666v1.28l12.8 79.36c1.28 7.68 0 15.786667-3.84 22.186667-9.813333 17.493333-31.573333 24.32-49.066667 14.506667l-64.853333-34.56c-10.24-5.546667-23.04-5.546667-33.28 1.28l-63.146667 33.706666c-7.253333 3.84-14.933333 4.693333-23.04 3.84-19.2-2.986667-32.853333-21.76-29.866666-40.96l13.226666-82.346666c1.28-9.813333-1.706667-19.2-8.533333-26.453334L325.973333 393.813333c-4.693333-5.546667-8.533333-12.8-9.813333-20.053333-2.986667-19.2 11.093333-37.546667 30.293333-40.533333l72.533334-11.52c11.52-0.426667 21.76-7.68 26.453333-18.346667l33.28-70.826667c5.973333-11.946667 18.773333-20.48 32.853333-20.48s26.453333 7.68 32.853334 20.48l32.853333 70.4c4.693333 11.093333 14.933333 18.346667 27.306667 19.2l72.533333 11.093334c7.253333 1.28 14.506667 4.693333 20.053333 9.813333 13.653333 14.08 14.08 37.12 0.426667 50.773333z" fill="#4C4C4C" /></svg>