<?xml version="1.0" encoding="UTF-8"?><svg id="Layer_2" xmlns="http://www.w3.org/2000/svg" viewBox="0 0 705.71 564.93"><defs><style>.cls-1{fill:#f8b398;}.cls-2{fill:#f6a38a;}.cls-3{fill:#f13f45;}.cls-4{fill:#e5e6e7;}.cls-5{fill:#bbbdbf;}.cls-6{fill:#d0d2d3;}.cls-7{fill:#dfdfdf;}.cls-8{fill:none;stroke:#000;stroke-miterlimit:10;stroke-width:1.52px;}.cls-8,.cls-9,.cls-10{opacity:.2;}.cls-8,.cls-10{isolation:isolate;}</style></defs><g id="Layer_1-2"><path class="cls-6" d="M145.53,260.55s-46.76,25.05-60.1,122.92c0,0-22.25,115,77.11,123.49,0,0,109.43,23.54,191.89,11.2l132.87-9.46,38.04-36.52,22.41-104.67L229.84,246.54l-84.31,14.01Z"/><path d="M468.82,296.89l13.69-9.04s73.72-54.41,81.71,16.24v76.49c.03,7.71,.5,15.41,1.42,23.07,.7,6.09,.61,13.69-3.88,14.93l-100.18-120.16,7.24-1.52Z"/><path class="cls-10" d="M468.82,296.89l13.69-9.04s73.72-54.41,81.71,16.24v76.49c.03,7.71,.5,15.41,1.42,23.07,.7,6.09,.61,13.69-3.88,14.93l-100.18-120.16,7.24-1.52Z"/><path class="cls-1" d="M357.91,232.25l5.49-20.54-11-29.31s-11.76,3.5-14.21,10.65l19.72,39.2Z"/><path class="cls-3" d="M205.54,253l34.07,72.79c20.71,13.02,47.09,21.2,47.09,21.2,13.01-11.84,103.58-50.3,103.58-50.3l-52.08-103.59c.59-4.73,14.21-10.65,14.21-10.65-14.21-47.17-37.89-46.76-37.89-46.76l-25.09-3.04-59.59-11.84c-10.65,2.27-36.67,5.42-36.67,5.42-26.63,3.56-36.7,74-36.7,74,0,0,10.07-13.02,38.48-3.56,0,0,20.71,6.51,18.35,14.21l-7.76,42.13Z"/><g class="cls-9"><path d="M215.96,212.54c-1.12-.03-2.2-.39-3.12-1.03l.91-1.4c.99,.78,2.34,.96,3.5,.46,5.14-2.4,8.06-18.15,8.76-24.03l1.67,.2c-.11,.9-2.71,22.05-9.72,25.35-.63,.3-1.31,.45-2.01,.46Z"/></g><path class="cls-3" d="M482.58,287.76l25.23-106.95c.68-2.94-1.14-5.87-4.08-6.56-.48-.11-.98-.16-1.47-.14l-133.25,6.09c-3.31,.14-6.11,2.48-6.83,5.71l-24.54,108.4c-.97,4.69-4.5,8.43-9.13,9.68l-67.42,32.99,25.68,9.92s72.47-41.17,103.58-50.3c0,0,50.52-24.24,63.45-14.17,0,0,10.06,6.47,15.09,14.36l13.69-9.02Z"/><path class="cls-7" d="M482.58,287.76l25.23-106.95c.68-2.94-1.14-5.87-4.08-6.56-.48-.11-.98-.16-1.47-.14l-133.25,6.09c-3.31,.14-6.11,2.48-6.83,5.71l-24.54,108.4c-.97,4.69-4.5,8.43-9.13,9.68l-67.42,32.99,25.68,9.92s72.47-41.17,103.58-50.3c0,0,50.52-24.24,63.45-14.17,0,0,10.06,6.47,15.09,14.36l13.69-9.02Z"/><path class="cls-10" d="M338.19,304.04c2.71-.35,5.42-.53,8.11-.65,2.69-.12,5.42-.17,8.13-.18,2.71-.02,5.4,0,8.11,.18,2.71,.18,5.42,.3,8.13,.65-2.71,.35-5.42,.53-8.13,.65-2.71,.12-5.4,.17-8.11,.18-2.71,.02-5.42,0-8.13-.2-2.71-.2-5.4-.3-8.11-.64Z"/><path d="M286.7,346.95s108.81,40.46,142.59,20.33c0,0,13.69,33.06,74.03,72.6,0,0,23.72,20.85,27.31,13.69l-8.63-6.09s3.24-39.9,35.23-34.86c0,0,7.18,4.31,3.59-5.39l-63.91-69.35-28.09-40.99s-7.43-10.53-15.09-14.36c0,0-8.38-6.38-29.47,1.08,0-.05-86.82,30.8-137.55,63.34Z"/><path class="cls-10" d="M503.82,313.32c-.1,2.26-.31,4.52-.64,6.76-.29,2.24-.68,4.44-1.1,6.65-.41,2.21-.9,4.41-1.52,6.6-.62,2.19-1.16,4.35-1.92,6.5,.1-2.26,.31-4.52,.64-6.76,.29-2.24,.68-4.44,1.1-6.65s.91-4.41,1.52-6.59,1.16-4.37,1.92-6.51Z"/><path class="cls-3" d="M695.15,480.36s-7.87,5.63-33.48,22.19c0,0-23.6,14.09-52.19,11.61,0,0-28.58-1.67-34.78-4.56l-3.74-14.5s-7.44-12.43-2.07-15.32c0,0,5.81,2.97,11.61-4.14,0,0,15.32-19.07,20.71-23.62,0,0,7.97-4.99,17.68,4.4,4.31,4.26,9.45,7.59,15.11,9.77,6.98,2.66,14.42,3.9,21.88,3.65,0,0,40.11-2.53,39.27,10.53Z"/><path d="M666.57,520.99c-26.51,18.02-82.43,11.38-82.43,11.38-13.69-1.25-9.53-22.82-9.53-22.82,6.21,2.89,34.78,4.56,34.78,4.56,28.59,2.48,52.19-11.61,52.19-11.61,25.68-16.56,33.48-22.19,33.48-22.19,35.29,8.09-28.5,40.67-28.5,40.67Z"/><path class="cls-10" d="M603.61,459.06c1.53,.08,3.06,.27,4.56,.56,1.5,.28,2.98,.66,4.43,1.13,1.46,.49,2.88,1.08,4.26,1.77,1.38,.73,2.69,1.59,3.91,2.57l-.18-.12c2.18,1.03,4.37,2.02,6.53,3.04,2.16,1.02,4.34,2.1,6.48,3.18,2.15,1.08,4.29,2.19,6.42,3.35,2.13,1.16,4.23,2.3,6.31,3.53-2.27-.84-4.56-1.75-6.73-2.68s-4.43-1.89-6.63-2.88-4.38-1.99-6.57-3.04-4.34-2.1-6.51-3.13h-.17c-2.24-1.91-4.78-3.45-7.5-4.56-2.79-1.14-5.67-2.05-8.61-2.71Z"/><path class="cls-10" d="M651.25,499.65c-.55-2.16-.81-4.39-.78-6.62,0-2.24,.24-4.48,.73-6.66,.53-2.21,1.36-4.33,2.48-6.3,1.14-1.94,2.7-3.59,4.56-4.85-1.37,1.68-2.53,3.51-3.45,5.46-.84,1.97-1.51,4.01-2.01,6.09-.45,2.12-.78,4.25-1,6.41-.24,2.08-.43,4.26-.53,6.48Z"/><path class="cls-3" d="M478.65,485.79s5.96,3.59,20.05-.88c0,0,44.23-14.5,62.81,18.26,0,0-6.31-26.84-5.57-37.26l-25.32-12.42s-1.61,3.96-8.72-.37c0,0-3.18,4.98-13.95,7.21-6.23,2.05-11.7,5.94-15.67,11.15,0,0-7.32,12.45-13.63,14.3Z"/><path d="M465.55,497.19s6.44-12.74,13.1-11.4c0,0,4.56,2.69,17.35-.09,0,0,29.82-10.91,54.05,4.12,9.42,5.64,14.63,16.31,13.28,27.21-.91,7.95-5.79,14.9-12.95,18.47-30.77-6.31-59.75-19.4-84.83-38.31h0Z"/><path class="cls-4" d="M473.37,510.21s-21.58-20.01,2.22-10.56c0,0,11.94,8.54,21.93,2.66,3.67-2.24,7.75-3.74,12.01-4.41,8.32-1.22,21.3-1.84,32.81,3.04,6.48,2.75,10.88,8.91,11.38,15.93,.82,10.82-.84,26.1-17.85,21.67l-13.95-6.7s-2.04-2.6-15.43-.75c0-.06-8.57,5.14-33.11-20.89Z"/><path class="cls-10" d="M549.12,466.15c.2,1,.31,2.02,.32,3.04,0,2.05-.22,4.09-.67,6.09-.23,1.01-.56,1.99-.99,2.94-.21-1-.32-2.02-.32-3.04-.03-2.05,.2-4.09,.67-6.09,.23-1.01,.56-1.99,.99-2.94Z"/><path class="cls-10" d="M538.1,480.36c.95-.86,2.03-1.56,3.21-2.07,1.18-.53,2.44-.89,3.73-1.05,1.34-.17,2.7-.02,3.97,.46,1.28,.45,2.31,1.42,2.85,2.66-.94-.72-2.04-1.21-3.21-1.42-1.13-.16-2.28-.16-3.41,0-2.33,.23-4.64,.88-7.14,1.42Z"/><path class="cls-1" d="M249.24,77.77s-4.4,26.38-19.4,42.95c0,0,40.26,41.43,59.59,11.84l1.75-19.78-38.5-34.14-3.44-.87Z"/><path class="cls-2" d="M289.42,132.55l1.16-10.18-34.78-24.53s-2.42,29.67,33.63,34.71Z"/><ellipse class="cls-1" cx="291.14" cy="70.15" rx="57.2" ry="38.94" transform="translate(196.44 354.25) rotate(-85.11)"/><path d="M249.35,48.73s-3.04-43.72,23.25-43.72c0,0,25.56-11.28,37.6,0,0,0,2.25,7.53,12.02,7.53,0,0,11.28,1.86,15.79,11.82,0,0,13.34,19.78-7.99,35.51l-2.86-11.66c-1.79-7.33-8.62-12.3-16.14-11.73-3.04,.22-6.05,.69-9.01,1.4-5.48,1.33-10.49,4.14-14.47,8.13-8.31,8.29-28.7,25.23-38.19,2.71Z"/><ellipse class="cls-1" cx="252.68" cy="63.29" rx="10.15" ry="15.41"/><path class="cls-1" d="M156.47,200.16s-13.47,59.8-13.94,94.34c0,0-2.88,11.02,17.25,11.98,0,0,53.26,11.76,66.95,16.52,.72,.24,1.31,.49,1.78,.7,9.77,4.56,51.46,3.86,51.46,3.86l48.46-23.52s9.57-1.92,9.57-13.42l2.4-9.59s-16.74-5.26-26.35,4.79c0,0-22.52,16.74-46.96,6.22,0,0-36.17-10.01-63.21-22.17-2.2-.98-3.26-3.51-2.42-5.77l4.06-11.11,7.76-42.19s2.13-3.93-4.37-7.61c.06,.02-36.59-20.68-52.46-3.04Z"/><rect class="cls-2" x="197.78" y="262.46" width="1.67" height="11.21" transform="translate(-120.01 366.97) rotate(-70.71)"/><path class="cls-1" d="M522,447.42l46.82,32.35s6.09,2.8,11.59-4.14c0,0,14.5-18.26,20.71-23.62l-35.76-30.43c-2.36-2.01-4.49-4.26-6.36-6.73l-1.78-2.33s-19.05-5.1-29.35,15.05c0,.03-6.85,13.57-5.87,19.84Z"/><path class="cls-5" d="M129.23,313.32c1.46-.74,2.99-1.34,4.56-1.8,1.52-.49,3.04-.88,4.7-1.22,3.18-.62,6.4-1.04,9.63-1.25,6.49-.45,13-.38,19.48,.21,6.47,.57,12.91,1.47,19.29,2.71,6.38,1.25,12.69,2.77,18.96,4.43,12.52,3.46,24.85,7.58,36.94,12.33,3.04,1.19,6.09,2.43,9.04,3.64l8.96,3.82c5.95,2.51,11.99,4.87,18.03,7.17,24.25,9.13,48.89,17.29,74.13,23.01,12.59,3.04,25.39,5.07,38.3,6.09,6.45,.47,12.93,.41,19.37-.18,6.46-.52,12.79-2.16,18.69-4.85-5.83,2.89-12.14,4.7-18.62,5.34-6.46,.76-12.98,.95-19.48,.58-12.98-.83-25.87-2.67-38.56-5.52-12.69-2.81-25.21-6.27-37.61-10.12-6.19-1.92-12.36-3.96-18.5-6.09-6.15-2.13-12.17-4.38-18.26-6.7-6.09-2.31-12.08-4.73-18.08-7.29l-8.92-3.83c-3.04-1.22-6-2.46-8.99-3.65-12.05-4.72-24.27-9.04-36.72-12.58-6.24-1.72-12.52-3.29-18.85-4.56s-12.75-2.28-19.17-2.94c-6.45-.75-12.95-.98-19.43-.68-3.23,.19-6.45,.57-9.63,1.16-1.52,.29-3.16,.65-4.72,1.1-1.56,.43-3.09,1-4.55,1.7Z"/><line class="cls-8" x1="338.19" y1="193.05" x2="317.51" y2="155.95"/><path class="cls-3" d="M94.75,450.57c.66-16.92,.42-33.85-.7-50.75-2.51-34.82-7.83-69.37-15.92-103.33-4.43-19.14-9.89-37.96-15.6-56.79-.15-.58-1.08-.43-.91,.18,17.59,66.24,32.03,134.59,31.04,203.44-.27,19.28-2.51,38.21-4.35,57.35,0,.5,.79,.72,.93,.2,3.64-16.34,4.81-33.57,5.51-50.3Z"/><path class="cls-3" d="M61.64,239.93s-26.64,67.64-20.68,83.54c5.96,15.9,18.26,19.29,18.26,19.29,0,0-16.31,23.28-4.91,45.12,11.4,21.84,36.64,20.8,38.48,45.56-.08,0,1.34-103.51-31.15-193.5Z"/><path d="M89.82,390.68c.03-.11,.03-.23,0-.33-3.51-46.18-12.19-91.83-25.87-136.08,0-.14-.26-.09-.23,0,5.29,19.78,9.95,39.67,14,59.66-3.58-3.39-7.95-5.82-12.71-7.09-.09,0-.15,.11,0,.15,5,1.84,9.5,4.85,13.12,8.76,.76,3.93,1.52,7.85,2.27,11.76-5.96-6.65-14.21-9.94-22.49-13.1-.12,0-.17,.15,0,.2,8.61,3.48,17.18,8.02,23.01,15.43,2.03,11.23,3.81,22.49,5.34,33.78-4.3-4.51-9.81-7.68-15.87-9.13-.18,0-.3,.24-.12,.3,6.27,1.8,11.87,5.38,16.13,10.32h.11c.53,3.97,1.02,7.96,1.52,11.94-3.33-2.83-7.09-5.1-11.14-6.73-.11,0-.17,.12,0,.18,4.12,1.76,7.9,4.24,11.15,7.32h.15c.43,3.77,.9,7.61,1.28,11.38-6.01-7.25-13.8-12.82-22.61-16.14-.05-.05-.14-.06-.19,0,0,0,0,0,0,0-.06,.06-.06,.15,0,.21h0c8.7,3.84,16.34,9.72,22.28,17.15,.13,.17,.36,.25,.56,.18,.58,5.81,1.11,11.66,1.52,17.5h.14c-.44-5.66-.85-11.66-1.34-17.64Z"/><path d="M68.41,300.17c-4.83-3-10.34-4.71-16.02-4.99-.12,0-.14,.18,0,.21,5.48,1.01,10.81,2.75,15.84,5.16,.21,.11,.38-.24,.18-.38Z"/><path d="M71.62,371.79c-3.7-2.13-7.78-3.53-12.01-4.12-.15,0-.15,.21,0,.24,4.14,.82,8.14,2.22,11.88,4.15,.15,.09,.29-.18,.12-.27Z"/><path class="cls-3" d="M164.87,324.56c-11.27,7.8-21.62,16.85-30.86,26.98-9.52,10.7-16.89,23.15-21.7,36.64-10.12,28.18-15.55,57.82-16.1,87.75-.35,16.61,1.24,33.21,4.75,49.45,.1,.24,.38,.35,.62,.26,.18-.07,.29-.25,.29-.44-4.34-28.6-4.17-57.7,.5-86.24,4.56-28,11.76-58.43,29.55-81.18,9.68-12.39,21.76-22.12,33.7-32.18,.22-.29,.17-.71-.13-.94-.18-.14-.42-.17-.63-.1Z"/><path class="cls-3" d="M100.14,455.77c6.41-10.38,13.95-20.02,22.47-28.74,13.33-13.31,24.56-22.82,26.29-31.6,1.73-8.78-13.36-15.31-13.36-15.31,0,0,18.44,3.32,23.51-4.44,5.07-7.76,7.49-52.57,7.49-52.57,0,0-33.63,24-49.21,57.56-15.58,33.57-17.19,75.11-17.19,75.11Z"/><path d="M154.93,334.62c-14.14,13.88-28.35,28.65-36.64,46.88-2.81,6.3-5.26,12.75-7.33,19.32h0c-.44,1.32-.85,2.65-1.26,3.99-.02,.07-.02,.14,0,.21-3.95,13.62-7.13,27.45-9.54,41.42,0,.09,.12,.15,.15,0,1.52-7,3.04-14.06,4.81-21.1h.2c2.81-1.2,5.78-1.96,8.83-2.25,.2,0,.18-.37,0-.35-2.97,.14-5.91,.67-8.73,1.6,1.64-6.36,3.41-12.69,5.39-18.94,6.49-1.54,13.12-2.39,19.78-2.54v-.09c-6.57-.32-13.15,.23-19.57,1.64,.35-1.07,.7-2.13,1.07-3.21,4.36-1.04,8.79-1.78,13.25-2.22m0-.15c-4.37,.06-8.72,.57-12.98,1.52,1.84-5.4,3.82-10.65,6-15.92,1.83-4.25,3.95-8.36,6.35-12.31,3.54-.85,7.12-1.46,10.74-1.83v-.18c-3.37-.26-6.77,.07-10.03,.99,1.83-2.85,3.65-5.65,5.6-8.34h0c7.53-1.67,15.22-3.23,22.82-1.83,.07,0,.12-.05,.12-.12s-.05-.12-.12-.12c-7.32-1.92-14.65-.81-21.97,.64,.79-1.07,1.61-2.1,2.43-3.15,4.55-1.4,9.28-2.15,14.04-2.22,.11,0,.14-.14,0-.14-4.41-.41-8.85-.02-13.12,1.16,6.24-7.73,13.1-14.99,19.9-22.17,.38-.35,.14-.55-.18-.23l-29.61,64.24Z"/><path d="M154.53,365.21c-2.21-.33-4.44-.41-6.66-.24-.27,0-.26,.47,0,.47,2.22,0,4.41-.09,6.63,0,.18,.05,.2-.21,.03-.23Z"/><path d="M130.37,408.71c-3.54,.08-7.04,.78-10.33,2.07v.15c3.44-.82,6.89-1.16,10.33-1.72,.14-.04,.22-.18,.18-.32,0,0,0,0,0,0-.02-.09-.09-.16-.18-.18Z"/><path d="M123.22,393.67c-1.47-.01-2.94,.12-4.38,.4-.15,0-.15,.26,0,.26,1.47,.08,2.95,.01,4.41-.2,.12-.05,.18-.18,.14-.3-.02-.08-.09-.14-.17-.15Z"/><path class="cls-3" d="M1.73,372.16c10.9,3.71,21.34,8.62,31.15,14.65,10.18,6.47,19,14.86,25.97,24.7,14.71,20.45,25.97,43.17,33.32,67.27,4.13,13.35,6.68,27.14,7.61,41.08-.05,.21-.26,.35-.47,.3h0c-.15-.03-.27-.15-.3-.3-3.1-24.12-9.97-47.61-20.34-69.61-10.16-21.58-23.02-44.57-42.6-58.86-10.65-7.79-22.73-12.83-34.71-18.26-.7-.29-.23-1.19,.38-.97Z"/><path class="cls-3" d="M84.42,463.43c-7.59-6.92-15.92-12.98-24.85-18.06-13.86-7.71-25.15-12.83-28.59-19.51-3.44-6.68,7.32-15.47,7.32-15.47,0,0-14.15,6.94-20.04,1.83-5.89-5.11-18.26-40.84-18.26-40.84,0,0,32.7,11.64,53.12,35.21,20.42,23.57,31.3,56.85,31.3,56.85Z"/><path d="M82.7,456.06c-16.36-30.71-38.18-58.48-68.09-76.81h0c7.8,5.03,15.12,10.76,21.87,17.13-6.07-.35-12.13,.91-17.56,3.67-.14,0,0,.21,0,.18,5.78-2.17,11.92-3.2,18.09-3.04h.2c1.07,1,2.12,2.02,3.16,3.04-3.16,.14-6.31,.56-9.4,1.25-.09,0,0,.14,0,.12,3.27-.61,6.59-.88,9.92-.82,5.47,5.54,10.62,11.39,15.43,17.51-2.2-.3-4.44-.14-6.57,.47-.07,0-.12,.05-.12,.12,0,.07,.04,.13,.11,.14,0,0,.01,0,.02,0,2.33-.27,4.68-.3,7.01-.09,.9,1.14,1.83,2.27,2.68,3.42-6.65-.4-13.33,.25-19.78,1.92m0,.15c6.71-1.31,13.56-1.75,20.39-1.32,.82,1.11,1.63,2.25,2.43,3.38-3.98-.11-7.96,.35-11.81,1.35-.06,0-.11,.05-.12,.11,0,.06,.05,.11,.11,.11h0c4-.86,8.09-1.18,12.17-.94,3.52,4.88,6.89,9.82,10.12,14.82-1.72-.3-3.5-.2-5.17,.3m0,.15c1.87-.15,3.75-.06,5.6,.27,2.91,4.53,5.72,9.1,8.43,13.69,.47,.41,1.1,.12,.9-.29l-14.93-13.68Z"/><path d="M57.27,430.6c-3.21-.23-6.44,.16-9.51,1.16v.14c3.13-.53,6.28-.86,9.45-.97,.24-.02,.27-.3,.06-.32Z"/><path d="M28.74,393.17c-1.49-.09-2.99,.02-4.46,.32-.07,0-.12,.05-.12,.12s.05,.12,.12,.12c1.52-.14,2.89-.09,4.31-.12,.13,.04,.26-.03,.3-.15,.03-.12-.03-.25-.15-.29Z"/><polygon points="126.58 564.93 52.78 564.93 63.3 487.85 65.99 468.08 113.37 468.08 116.07 487.85 126.58 564.93"/><polygon class="cls-10" points="116.07 487.85 63.3 487.85 65.99 468.08 113.37 468.08 116.07 487.85"/><rect x="59.21" y="461.22" width="60.93" height="16.74"/></g></svg>