<?xml version="1.0" encoding="utf-8"?>
<!-- Generator: Adobe Illustrator 24.1.2, SVG Export Plug-In . SVG Version: 6.00 Build 0)  -->
<svg version="1.1" id="Scene" xmlns="http://www.w3.org/2000/svg" xmlns:xlink="http://www.w3.org/1999/xlink" x="0px" y="0px"
	 viewBox="0 0 500 450" style="enable-background:new 0 0 500 450;" xml:space="preserve">
<style type="text/css">
	.st0{fill:#C2411D;}
	.st1{fill:#754129;}
	.st2{fill:#FC8872;}
	.st3{fill:#00010E;}
	.st4{fill:#FFFFFF;}
	.st5{fill:#E8564B;}
	.st6{fill:#621222;}
	.st7{fill:#E23B3A;}
	.st8{fill:#DB664E;}
	.st9{fill:#FCDD2B;}
	.st10{fill:#E0E0E0;}
	.st11{fill:#BCAD8E;}
	.st12{fill:#97B7FD;}
</style>
<g id="_x32_">
	<g>
		<path class="st0" d="M354.1,257.1c-1.1,32-8.2,48-17.2,67.9c-2.8,6.2-8.4,10.8-15,12.6c-24.6,6.8-58.4,13.1-98.4,11.7
			c-28-0.9-52.3-5.4-72-10.5c-8.6-2.3-15.2-9.4-16.8-18.2c-7.8-42.9,1-63.2,11.7-73.7c24.7-24.5,49.8-5.3,81.3-29.6
			c30-23.2,20.2-52.3,47.5-65.2c23.5-11.1,58.1-2.3,74.6,18.3C356.7,179.1,355.9,205.2,354.1,257.1z"/>
		<path class="st1" d="M319.4,243.3c0.4,9.4-37.2,21.7-72.3,22.5c-42.3,0.9-79.5-15-78.7-20.2c0.4-2.4,9.1-3.6,26.6-6.1
			c21-3,22.5-1,34.8-3.7c16.3-3.6,20.7-8.9,28-10.1c2.2-0.3,3.8-0.1,5.9,0C278.4,226.6,319,233.6,319.4,243.3z"/>
	</g>
	<g>
		<path class="st2" d="M233.5,147.4c-0.9,2.5-1.9,5-2.8,7.5c-2.6,6.9-5.2,13.8-7.8,20.6l-0.1,0.2c-0.2,0.6-0.4,1.2-0.7,1.8
			c-0.3,0.7-0.6,1.4-0.8,2.2c-0.9,2.2-1.7,4.4-2.5,6.6c-0.5,1.3-1,2.5-1.4,3.8c2.7,1.1,5.7,2.5,8.7,4.1c2.9,1.5,5.5,3.1,7.8,4.6
			c0.9-1.2,2.2-3,3.6-5.4c1.2-2,1.9-3.4,2.5-4.5c2-3.5,3.9-6.7,5.7-9.6c2.7-4.6,5.1-8.5,7.2-12c3-4.8,7-10.9,6.8-18.5
			c-0.1-4.1-1.3-7.8-2.1-9.9c-1.7-5.1-4-8.8-5.8-11.2c-2.1-0.1-5.3,0-8.4,1.6C237.3,132.2,233.6,139.3,233.5,147.4z"/>
		<path class="st2" d="M245.7,99.7c2.7,6.4,5.4,12.7,8.1,19.1c1,2.2,1.9,4.4,2.8,6.6c2.9-1.2,6.5-2.5,10.9-3.4
			c5.6-1.1,10.5-1.1,14.1-0.8c-7.6-8-11.1-13.1-12.9-16.4c-0.3-0.5-2.1-4.4-5.6-10.2c-0.6-1-1.1-2-1.6-3
			C256.3,94.4,250.9,97,245.7,99.7z"/>
		<path class="st2" d="M245.7,99.7c2.7,6.4,5.4,12.7,8.1,19.1c4.3-2.3,8.4-8.8,9.5-15.1c0.5-2.9,0.5-6.1-0.1-9.1c-0.6-1-1.1-2-1.6-3
			C256.3,94.4,250.9,97,245.7,99.7z"/>
		<g>
			<path class="st2" d="M253.4,111.7c-6.5,1.7-13.1-2.1-14.9-8.5L234,86.2c-0.7-2.7,0.9-5.4,3.5-6.1l13.8-3.7
				c2.7-0.7,5.4,0.9,6.1,3.5l4.6,16.9C263.7,103.3,259.9,109.9,253.4,111.7z"/>
			<path class="st2" d="M262,96.8c-2.8,0.7-5.6,1.5-8.4,2.2c-6.5-4.3-13-8.6-19.6-12.9c-0.3-1.8-0.3-4.3,0.9-6.8
				c3.8-7.9,18.3-11,24.9-4.9c4.7,4.4,4.1,12.3,4,14.7C263.5,92.5,262.7,95.1,262,96.8z"/>
		</g>
		<path class="st3" d="M230.1,74.9c3.7,0.3,4.6,0.6,4.7,0.8c0,0.4-1.9,0.4-3.8,1.5c-1.9,1.2-3,3-3.6,4.7c2-0.2,4-0.3,6-0.5
			c-2,1.8-4,3.5-6,5.3c6.6,3.1,10.2,2.7,12.2,1.7c1-0.5,3.5-2.1,5.5-1.2c0.5,0.2,1.3,0.7,1.9,1c0.9,0.6,1.4,1,2.4,1.5
			c3.5,1.6,5.7-1,8.6,0.2c3.6,1.6,3.3,7,4.7,7c1.8,0,5.4-8.7,2.8-16.9c-3.1-9.5-13.2-12.8-14.5-13.3c-7.3-2.3-13.5-0.3-15.7,0.5
			c2,0.7,4.1,1.5,6.1,2.2c-1.3-0.1-4.9-0.1-8.2,2.2C231.7,72.7,230.7,74,230.1,74.9z"/>
		<path class="st2" d="M256.2,91.8c1,2.9,3.4,4.7,5.4,4c2-0.7,2.7-3.6,1.7-6.5c-1-2.9-3.4-4.7-5.4-4C255.9,86,255.1,88.9,256.2,91.8
			z"/>
		<path class="st4" d="M243.5,106.6c0.1,0.2,1.5,2.4,3.6,2.5c2.2,0,4.6-2.5,4.5-6c-1.4,0.2-3.4,0.6-5.5,1.7
			C245.1,105.4,244.3,106,243.5,106.6z"/>
		<path class="st2" d="M293.4,240c-2,1.5-5,3.5-8.7,5.7c-5,2.9-8.9,4.5-10.4,5.2L221.7,274l-9.1,4c-0.6,0.3-1.2,0.5-1.8,0.8
			c-0.8,0.5-1.5,1-2.3,1.5c-4.4,2.9-8.9,5.9-13.3,8.9c-3.9-4.1-7.7-8.2-11.6-12.3c0.3-1.1,0.7-2.1,1.3-3c1.9-1.8,3.9-3.5,6-5.4
			c7.6-6.7,16.6-13.9,26.9-21.2c16.4-11.6,32-20.3,45-26.7C273,227.1,283.2,233.5,293.4,240z"/>
		<g>
			<path class="st2" d="M146.7,343.1c-2.2-2.7-4.4-5.4-6.7-8.2c0.5-0.6,0.9-1.2,1.4-1.8c1.5-2,3-4.1,4.4-6.1c1.2-1.7,2.4-3.3,3.6-5
				c7.8-10.9,16.7-32,34.9-48c1.1-1,2.8-2.4,4.8-4c2-0.3,4.5-0.4,7.4,0.2c0.5,0.1,1.1,0.3,1.5,0.4c1,0.3,2,0.8,2.9,1.4
				c2.2,1.4,4,3.5,5.1,6.2c0.2,0.4,0.4,0.8,0.5,1.3c-1.4,4-3.9,10.2-8.5,16.7c-0.8,1.1-1.6,2.3-2.5,3.2
				c-6.7,8.5-14.4,13.5-29.2,26.1c-2.7,2.2-6,5.1-9.8,8.6c-2.5,2.2-5.1,4.6-8,7.3C148,341.9,147.4,342.5,146.7,343.1z"/>
			<g>
				<path class="st2" d="M118,357.4c-0.6,0.3-1.7,0.8-3,0.7c-0.6-0.1-2-0.4-1.9-1.2c0.1-0.6,1.4-1,1.4-1.3c0-0.2-1.3,0.3-2.8,0.1
					c-0.6-0.1-1.5-0.1-1.6-0.7c-0.1-0.6,0.7-1.3,0.8-1.4c-0.4,0.1-2.7,0.7-3.5-0.3c-0.1-0.2-0.5-0.6-0.2-1.1
					c0.2-0.5,0.9-0.7,0.9-0.7c-0.4,0.1-1.2,0.2-2-0.2c-0.7-0.3-1.7-1.3-1.2-2.2c0.4-0.7,1.7-1.4,2.9-1.2c-2.8-0.2-4.1-2.3-3.5-4.2
					c0.5-1.7,2.3-2.8,2.6-3c2.9,0,5.9,0,8.8,0c8.5-2.6,17.1-5.2,25.6-7.8c2.4,2.8,4.8,5.5,7.3,8.3c-0.8,1.1-2,2.8-3.4,5
					c-3.3,4.9-4.1,6.2-5.7,7c-0.8,0.4-2.7,1-5.4-0.5c-1.9,1.1-4.8,2.5-8.3,3.5C122.6,357.2,119.9,357.4,118,357.4z"/>
				<g>
					<path class="st5" d="M108.5,348.5c-0.3,0-0.6,0-0.9-0.1c-1.7-0.3-3.5-1.2-3.7-3.1c-0.1-1.1,0.2-2.7,1.6-3.9
						c0.9-0.7,1.8-1,2.4-1.1c0.3,0,0.5,0.1,0.5,0.4c0,0.3-0.1,0.5-0.4,0.5c-0.5,0.1-1.2,0.3-1.9,0.9c-1.2,1-1.3,2.4-1.3,3.1
						c0.2,1.7,2.4,2.2,2.8,2.2c1.4,0.2,3-0.2,4.9-1.1c0.2-0.1,0.5,0,0.6,0.2c0.1,0.2,0,0.5-0.2,0.6
						C111.3,348,109.8,348.5,108.5,348.5z"/>
				</g>
				<g>
					<path class="st5" d="M108.2,352c-0.2,0-0.4-0.2-0.5-0.4c0-0.3,0.1-0.5,0.4-0.5c0.9-0.1,1.8-0.3,2.6-0.6c1.5-0.5,3-1.1,4.5-1.9
						c0.2-0.1,0.5-0.1,0.6,0.2c0.1,0.2,0,0.5-0.2,0.6c-1.5,0.9-3.1,1.5-4.7,2C110.1,351.6,109.2,351.8,108.2,352
						C108.2,352,108.2,352,108.2,352z"/>
				</g>
				<g>
					<path class="st5" d="M111,354.2c-0.2,0-0.4-0.1-0.4-0.3c-0.1-0.2,0-0.5,0.3-0.6c1.2-0.4,2.5-0.9,3.6-1.5
						c0.4-0.2,0.8-0.4,1.2-0.7c0.2-0.1,0.5-0.1,0.6,0.2c0.1,0.2,0.1,0.5-0.2,0.6c-0.4,0.2-0.8,0.5-1.3,0.7c-1.2,0.6-2.5,1.2-3.8,1.6
						C111.1,354.2,111.1,354.2,111,354.2z"/>
				</g>
				<g>
					<path class="st5" d="M114.6,356.1c-0.2,0-0.3-0.1-0.4-0.3c-0.1-0.2,0-0.5,0.2-0.6l5.1-2.5c0.2-0.1,0.5,0,0.6,0.2
						c0.1,0.2,0,0.5-0.2,0.6l-5.1,2.5C114.7,356.1,114.6,356.1,114.6,356.1z"/>
				</g>
			</g>
		</g>
		<path class="st2" d="M270.3,237.7c-2.2,1.2-5.4,2.7-9.5,4.3c-5.3,2.1-9.5,3.1-11.1,3.6L187,262.3l-2.4,0.6
			c-0.6,0.2-1.2,0.3-1.9,0.5c-1.2,0.6-2.5,1.2-3.8,1.7c-4.4,2-8.8,4.1-13.3,6.2c-0.2-0.8-1.1-4.6-4.8-7c-2.9-1.9-5.9-1.7-6.8-1.7
			c0.4-2,1.2-4.4,2.9-6.8c0.3-0.5,0.7-0.9,1-1.3c2.1-1.5,4.4-2.9,6.7-4.4c3.5-2.3,7.2-4.5,11.1-6.8c5.7-3.4,12-6.7,18.7-10.1
			c18.1-9,34.8-15.2,48.5-19.5C252.2,221.9,261.3,229.8,270.3,237.7z"/>
		<path class="st2" d="M291.4,214.3c1.2,1.3,4.4,4.9,5.2,10.6c1.4,9.2-4.4,15.7-5.1,16.4c-12.1,1.5-21.5,1.5-28,1.2
			c-2.1-0.1-3.2-0.2-4.5-0.6c-11-3.5-14.9-22.4-16.3-31.3c-0.7-14.3-1.4-28.7-2.1-43c-1-1.9-2-4.1-2.8-6.7c-2-6.3-2.2-11.9-1.9-15.9
			c-0.1-1.9-0.2-7,2.9-12.2c3.8-6.3,9.7-8.4,11.3-8.9c8.9-2,17.8-4,26.7-6c0.6-0.2,8-2.5,14,2.3c4.8,3.8,6.9,10.6,5.1,16.9
			c-2,22.1-3.9,44.2-5.9,66.3C290.5,207.1,290.9,210.7,291.4,214.3z"/>
		<path class="st2" d="M221.7,262v12l-9.1,4c-0.6,0.3-1.2,0.5-1.8,0.8c-0.8,0.5-1.5,1-2.3,1.5c-2.6-6.6-5.1-13.2-7.6-19.8
			C207.8,261,214.7,261.5,221.7,262z"/>
		<path class="st2" d="M192.3,258c-1.8,1.4-3.5,2.9-5.3,4.3l-2.4,0.6c-0.6,0.2-1.2,0.3-1.9,0.5c-1.2,0.6-2.5,1.2-3.8,1.7
			c-1.1-7.2-2.1-14.5-3.2-21.7c2.1,1.7,4.2,3.3,6.3,5C185.5,251.6,188.9,254.8,192.3,258z"/>
		<path class="st6" d="M267.8,221.9c-27.1,15.3-54.1,30.7-81.2,46c-3.7-8.4-7.4-16.7-11.1-25.1c16.4-9.6,35.1-18.7,56.2-26.3
			c3.8-1.4,7.6-2.7,11.4-3.9C251.3,215.7,259.6,218.8,267.8,221.9z"/>
		<path class="st6" d="M291.1,212.3c1.4,1.2,3.7,3.5,5.2,7c0,0,2.9,6.6,0.2,16.1c-3.1,10.8-32.1,30.6-75.1,49.1
			c-7.3-8.5-14.5-17-21.8-25.6c18.2-13.9,36.4-27.8,54.6-41.7C266.5,215.6,278.8,214,291.1,212.3z"/>
		<path class="st7" d="M124.8,358.5c-4.4,1.1-8.7,2.3-13.1,3.4c-5.2-0.3-9.6-3.2-11.3-7.5c-1.5-3.9-0.2-7.5,0-8
			c0.4-1.1,1.5-3.3,5.2-5.9c5.9-4.1,12.4-5.1,16.6-5.3c0.8,6.3,1.6,12.6,2.4,18.9c6.5-2.1,13-4.2,19.6-6.4c0.1,0.2,1.4,2.1,0.6,4.3
			c-0.7,1.8-2.2,2.5-2.5,2.7C136.5,356,130.7,357.2,124.8,358.5z"/>
		<g>
			<g>
				<path class="st2" d="M162.7,340.2c-3.4-0.9-6.7-1.9-10.1-2.9c0-0.7,0-1.5,0.1-2.3c0.1-2.5,0.1-5,0.2-7.5c0-2.1,0.1-4.1,0.1-6.2
					c0.1-13.4-4.5-35.7,1.2-59.4c0.3-1.3,0.7-2.9,1.3-4.8c0.2-0.8,0.7-1.4,1.3-1.9c1.2-1,3.4-2.6,5.2-3.4c0.8-0.3,1.5-0.5,1.5-0.5
					c1-0.3,2.1-0.5,3.2-0.5c2.6-0.1,5.3,0.6,7.7,2.1c0.4,0.2,0.8,0.5,1.1,0.8c1.1,4.1,2.6,10.6,2.6,18.5c0,1.4-0.1,2.8-0.2,4.1
					c-0.7,10.8-4.1,19.3-9.1,38.1c-0.9,3.4-2,7.6-3.2,12.6c-0.8,3.2-1.6,6.7-2.3,10.5C163,338.5,162.9,339.4,162.7,340.2z"/>
				<g>
					<path class="st2" d="M147.4,368.4c-0.3,0.6-1,1.6-2,2.2c-0.6,0.3-1.9,0.8-2.2,0.1c-0.3-0.6,0.6-1.6,0.4-1.8
						c-0.2-0.2-0.9,0.9-2.2,1.7c-0.6,0.3-1.3,0.7-1.7,0.3c-0.4-0.4-0.2-1.4-0.1-1.6c-0.3,0.3-1.8,2.1-3.1,1.8
						c-0.2-0.1-0.8-0.2-0.8-0.8c-0.1-0.5,0.3-1.1,0.4-1.1c-0.3,0.3-0.9,0.8-1.7,1c-0.8,0.1-2.1-0.1-2.2-1.1
						c-0.1-0.8,0.6-2.1,1.7-2.6c-2.4,1.4-4.7,0.5-5.3-1.4c-0.5-1.7,0.3-3.6,0.4-3.9c2.4-1.7,4.8-3.3,7.2-5c5.5-7,11-14,16.5-21
						c3.6,0.9,7.1,1.8,10.7,2.7c0,1.4,0,3.5,0,6c0.1,5.9,0.2,7.4-0.7,9c-0.4,0.8-1.6,2.3-4.7,2.7c-1,2-2.5,4.8-4.8,7.6
						C151,365.6,148.9,367.3,147.4,368.4z"/>
					<g>
						<path class="st5" d="M131.2,367.6c-0.9,0-1.7-0.3-2.4-1c-0.7-0.8-1.4-2.3-0.9-4.1c0.3-1.2,1-1.9,1.3-2.3
							c0.2-0.2,0.5-0.2,0.7,0c0.2,0.2,0.2,0.5,0,0.7c-0.3,0.3-0.8,0.9-1.1,1.8c-0.4,1.5,0.3,2.7,0.7,3.2c1.1,1.3,3.2,0.4,3.6,0.2
							c1.3-0.6,2.4-1.9,3.4-3.7c0.1-0.2,0.4-0.3,0.6-0.2c0.2,0.1,0.3,0.4,0.2,0.6c-1.1,2-2.4,3.4-3.7,4.1
							C132.8,367.3,132,367.6,131.2,367.6z"/>
					</g>
					<g>
						<path class="st5" d="M135.9,369.6c-0.1,0-0.2,0-0.3-0.1c-0.2-0.2-0.2-0.5,0-0.7c0.6-0.6,1.2-1.3,1.8-2c1-1.2,1.8-2.6,2.6-4.2
							c0.1-0.2,0.4-0.3,0.6-0.2c0.2,0.1,0.3,0.4,0.2,0.6c-0.8,1.6-1.7,3-2.7,4.3c-0.6,0.8-1.2,1.5-1.9,2.1
							C136.2,369.6,136.1,369.6,135.9,369.6z"/>
					</g>
					<g>
						<path class="st5" d="M139.5,369.8c-0.1,0-0.2,0-0.3-0.1c-0.2-0.2-0.3-0.4-0.1-0.7c0.8-1,1.5-2.2,2.1-3.3
							c0.2-0.4,0.4-0.8,0.6-1.2c0.1-0.2,0.4-0.3,0.6-0.2c0.2,0.1,0.3,0.4,0.2,0.6c-0.2,0.4-0.4,0.8-0.6,1.3
							c-0.7,1.2-1.4,2.4-2.2,3.5C139.8,369.7,139.7,369.8,139.5,369.8z"/>
					</g>
					<g>
						<path class="st5" d="M143.5,369.4c-0.1,0-0.2,0-0.2-0.1c-0.2-0.1-0.3-0.4-0.2-0.6l2.8-4.9c0.1-0.2,0.4-0.3,0.6-0.2
							c0.2,0.1,0.3,0.4,0.2,0.6l-2.8,4.9C143.8,369.3,143.7,369.4,143.5,369.4z"/>
					</g>
				</g>
			</g>
			<path class="st7" d="M152.5,367.7c-3.1,3.3-6.2,6.6-9.3,9.8c-4.5,2.5-9.8,2.4-13.5-0.4c-3.3-2.5-4.1-6.3-4.2-6.8
				c-0.1-0.7-0.6-3.4,1.3-7.8c2.9-6.8,8.6-10.8,11.8-12.6c3.8,4.7,7.7,9.4,11.5,14.1c4.4-5.3,8.8-10.5,13.2-15.8
				c0.2,0.1,2.3,1,2.8,3.3c0.4,1.9-0.5,3.3-0.7,3.6C161.1,359.4,156.8,363.6,152.5,367.7z"/>
		</g>
		<g>
			<path class="st8" d="M165.6,327.6c-0.4-0.1-0.5-0.3-0.5-0.6l11.2-42.7c0.1-0.2,0.3-0.4,0.6-0.3c0.3,0.1,0.4,0.3,0.3,0.6
				L166,327.3C166,327.5,165.8,327.6,165.6,327.6z"/>
		</g>
		<g>
			<path class="st8" d="M151.4,337c-0.3,0-0.5-0.2-0.5-0.5l1.6-19.4c0-0.3,0.2-0.4,0.5-0.4c0.3,0,0.5,0.2,0.4,0.5l-1.6,19.4
				C151.8,336.8,151.6,337,151.4,337z"/>
		</g>
		<g>
			<path class="st8" d="M142,349c-0.1,0-0.2,0-0.3-0.1c-0.2-0.2-0.2-0.5-0.1-0.7l9.4-11.9c0.2-0.2,0.5-0.2,0.7-0.1
				c0.2,0.2,0.2,0.5,0.1,0.7l-9.4,11.9C142.3,348.9,142.2,349,142,349z"/>
		</g>
		<g>
			<path class="st8" d="M200.9,255.5c-0.2,0-0.3-0.1-0.4-0.2c-0.1-0.2,0-0.5,0.2-0.6l47.7-27c0.2-0.1,0.5,0,0.6,0.2
				c0.1,0.2,0,0.5-0.2,0.6l-47.7,27C201.1,255.5,201,255.5,200.9,255.5z"/>
		</g>
		<path class="st9" d="M304.4,214c-3.6,2-14.1,7.5-27.1,9.8c-10,1.8-21.5,1.6-32.5-3.6c-3.1-1.5-6.4-3.5-9.8-6.2
			c2.5-8.5,4.8-20.3,4.2-34.4c-0.3-6.8-1.2-13-2.4-18.2c-3.7-16.9,0.3-31.6,9.6-36.7c1.9-1.1,4.8-2.1,9-2c-2.6,8-3.1,12.5-1.5,13.4
			c2.5,1.5,10.1-5.3,22.6-20.5c1.1-0.3,8.3-1.8,14.8,2.9c5.3,3.9,6.6,9.6,6.9,11c0.6,8.3,1.2,16.7,1.8,25
			C301.5,174.4,303,194.2,304.4,214z"/>
		<path class="st10" d="M261.5,240.7h-80.2c-1.8,0-1.9-1.6-0.2-3.7l14.3-17.1c1.7-2,4.5-3.7,6.3-3.7h80.2c1.8,0,1.9,1.6,0.2,3.7
			l-14.3,17.1C266.1,239.1,263.3,240.7,261.5,240.7z"/>
		<path class="st9" d="M250.2,124c-1,7.8-1.9,15.5-2.9,23.3c-0.1,9.9-0.3,19.9-0.4,29.8c-2.7-0.8-5.3-1.5-8-2.3
			c-2.1-0.6-4.2-1.2-6.2-1.8c-3.3-0.9-6.5-1.9-9.8-2.9c2.4-6.4,4.2-11.3,5.2-14.1c6.7-18.3,8.7-24.8,15.3-29.1
			C246.1,125.1,248.7,124.4,250.2,124z"/>
		<path class="st9" d="M304.4,214c-3.6,2-14.1,7.5-27.1,9.8c3.5-26.5,7-53,10.5-79.5c4.1,3.5,8.3,7,12.4,10.5
			C301.5,174.4,303,194.2,304.4,214z"/>
		<path class="st2" d="M327.6,188.9c-1.4,1.1-3.6,2.5-6.8,3.4c-4.8,1.3-8.9,0.2-10.6-0.3c-1.4-3.5-2.8-6.9-4.2-10.4
			c0-0.2-0.1-0.3-0.2-0.3c-1-2-2-4-3-6.1c-0.4-0.7-0.7-1.4-1-2.1c-0.3-0.6-0.6-1.2-0.9-1.7l-0.1-0.2c-3.3-6.6-6.5-13.2-9.7-19.7
			c-1.2-2.4-2.4-4.8-3.6-7.1c-0.7-9-1.4-18-2-27c2.9,0.3,7.2,1.2,12.1,3.4c2,0.9,5.6,2.5,8.6,5.3c5.7,5,7.5,12,8.9,17.6
			c1.1,3.9,2.3,8.4,3.8,13.5c0.9,3.2,2,6.6,3.1,10.3c0,0.2,0.1,0.3,0.1,0.4c0.8,2.6,1.2,3.9,1.6,4.9
			C325.1,176.1,326.5,181.5,327.6,188.9z"/>
		<path class="st2" d="M250,218.2c1.6,4.1,3.3,8.2,4.9,12.2c23.2-3,40.1-8,50.8-11.9c7.6-2.7,15.1-5.9,19.2-13.4
			c3.4-6.1,3.1-12.5,2.6-16.3c-1.8-0.1-4.8-0.2-8.4,0.1c0,0-4.5-0.2-8.7,1.7C290.3,199.8,270.1,209,250,218.2z"/>
		<path class="st10" d="M256.8,238.4h-75.2c-1.5,0-3-0.9-3.6-2.3l-26.4-54.2c-1.3-2.7,0.7-5.8,3.6-5.8h75.2c1.5,0,3,0.9,3.6,2.3
			l26.4,54.2C261.8,235.3,259.8,238.4,256.8,238.4z"/>
		<g>
			<path class="st11" d="M262.2,236.4c-0.2,0-0.3-0.1-0.4-0.3l-10.2-19.7c-0.1-0.2,0-0.5,0.2-0.6c0.2-0.1,0.5,0,0.6,0.2l10.2,19.7
				c0.1,0.2,0,0.5-0.2,0.6C262.3,236.4,262.3,236.4,262.2,236.4z"/>
		</g>
		<path class="st9" d="M239,174.7c-2.1-0.6-4.2-1.2-6.2-1.8c2-9.6,4-19.3,6-28.9C238.8,154.2,238.9,164.5,239,174.7z"/>
		<path class="st2" d="M322.4,167.3c-5.6,4.7-11.1,9.3-16.5,13.9c-1-2-2-4-3-6.1c-0.4-0.7-0.7-1.4-1-2.1c-0.3-0.6-0.6-1.2-0.9-1.7
			l-0.1-0.2c-0.1-0.1-0.1-1.8-0.1-1.8c7.1-0.7,14.3-1.4,21.4-2H322.4z"/>
		<path class="st9" d="M324.4,166.7c-9.9,3.1-19.7,6.3-29.6,9.4c-3.8-12.3-7.5-24.6-11.3-36.8c-0.7-1.8-1.4-4-1.6-6.6
			c-0.8-7.9,2.4-14.1,4-16.7c3.9,0.2,10,1.1,15.9,4.7c9.8,6,13.7,15.9,17.4,25.3C321.1,150.9,323.3,157.9,324.4,166.7z"/>
		<g>
			<path class="st8" d="M309.8,191.4c-0.2,0-0.4-0.1-0.4-0.3c-0.1-0.2,0.1-0.5,0.3-0.6l7.2-2.2c0.3-0.1,0.5,0.1,0.6,0.3
				c0.1,0.2-0.1,0.5-0.3,0.6l-7.2,2.2C309.9,191.4,309.9,191.4,309.8,191.4z"/>
		</g>
		<path class="st10" d="M208.6,210.9c1.7,3.5,1.4,7.1-0.6,8.1c-2,1-5-1.1-6.6-4.6c-1.7-3.5-1.4-7.1,0.6-8.1
			C203.9,205.3,206.9,207.4,208.6,210.9z"/>
	</g>
	<g>
		<g>
			<path class="st6" d="M306,384.3c-1.6-0.2-2.7-1.4-2.5-2.8L318.3,280c0.2-1.4,1.6-2.3,3.1-2.1c1.6,0.2,2.7,1.4,2.5,2.8
				l-14.8,101.5C308.9,383.5,307.5,384.5,306,384.3z"/>
			<path class="st6" d="M281.6,372.3l-0.5-0.1c-1.4-0.3-2.2-1.7-1.9-3.1l22.2-92.3c0.3-1.4,1.7-2.2,3.1-1.9l0.5,0.1
				c1.4,0.3,2.2,1.7,1.9,3.1l-22.2,92.3C284.4,371.8,283,372.6,281.6,372.3z"/>
		</g>
		<g>
			<path class="st6" d="M374.5,383c1.6-0.2,2.6-1.5,2.3-2.9l-19.4-100.9c-0.3-1.4-1.7-2.3-3.2-2c-1.6,0.2-2.6,1.5-2.3,2.9L371.3,381
				C371.5,382.4,373,383.3,374.5,383z"/>
			<path class="st6" d="M397.8,369.9l0.5-0.1c1.3-0.4,2.1-1.8,1.8-3.1l-26-91.3c-0.4-1.3-1.8-2.1-3.1-1.8l-0.5,0.1
				c-1.3,0.4-2.1,1.8-1.8,3.1l26,91.3C395.1,369.5,396.5,370.3,397.8,369.9z"/>
		</g>
		<g>
			<path class="st8" d="M384.7,275.1c0.1,0.8,0.1,1.5,0.2,2.3c-11.3-1.1-27.9-1.6-46.4-1.2c-18.5,0.4-35.1,1.6-46.3,3.1
				c0-0.8,0.1-1.5,0.1-2.3c-5,0-10-0.1-15-0.1c0,2.2,0.1,4.5,0.1,6.7c0.1,3.4,27.5,5.6,61.4,4.9c33.8-0.7,61.2-4,61.1-7.4
				c0-2.2-0.1-4.5-0.1-6.7C394.7,274.7,389.7,274.9,384.7,275.1z"/>
			<path class="st8" d="M384.7,275.1c0.1,0.8,0.1,1.5,0.2,2.3c-11.3-1.1-27.9-1.6-46.4-1.2c-18.5,0.4-35.1,1.6-46.3,3.1
				c0-0.8,0.1-1.5,0.1-2.3c-5,0-10-0.1-15-0.1c0,2.2,0.1,4.5,0.1,6.7c0.1,3.4,27.5,5.6,61.4,4.9c33.8-0.7,61.2-4,61.1-7.4
				c0-2.2-0.1-4.5-0.1-6.7C394.7,274.7,389.7,274.9,384.7,275.1z"/>
			<path class="st8" d="M399.7,274.4c0.1,3.4-27.3,6.7-61.1,7.4c-33.8,0.7-61.3-1.5-61.4-4.9c-0.1-3.4,27.3-6.7,61.1-7.4
				C372.2,268.8,399.7,271,399.7,274.4z"/>
		</g>
	</g>
	<g>
		<path class="st4" d="M356.9,274.6c0,2.1-10.2,3.9-22.8,3.9c-12.6,0-22.8-1.7-22.8-3.9c0-2.1,10.2-3.9,22.8-3.9
			C346.7,270.7,356.9,272.4,356.9,274.6z"/>
		<g>
			<g>
				<path class="st4" d="M337.4,276.2h-6.5c-5.9,0-10.7-3.8-10.7-8.4v-16.5c3.6-0.7,8.6-1.4,14.5-1.4c5.4,0,9.9,0.7,13.3,1.4
					c0,5.5,0,11,0,16.5C348.1,272.5,343.3,276.2,337.4,276.2z"/>
				<path class="st6" d="M346.2,251.8c0,0.5-7.4,0.8-12.1,0.8c-4.8,0-12.1-0.3-12.1-0.8c0-0.5,6.1-1.1,12-1.1
					C340,250.7,346.2,251.4,346.2,251.8z"/>
			</g>
			<g>
				<path class="st4" d="M321.7,268.1c-2,0-3.9-0.6-5.4-1.6c-1.6-1.1-2.7-2.7-3-4.4c-0.5-2.9,1-6.8,4.5-7.8c2.6-0.8,5.6,0.3,7.3,2.7
					l-3,2.2c-0.8-1.1-2.1-1.6-3.2-1.3c-1.5,0.4-2.1,2.3-1.9,3.5c0.1,0.7,0.7,1.4,1.5,2c1.2,0.9,2.9,1.1,4.6,0.8l0.7,3.7
					C323,268.1,322.3,268.1,321.7,268.1z"/>
			</g>
		</g>
		<g>
			<path class="st12" d="M337.7,276.3h-6.5c-3.8,0-7.3-1.5-9.3-4.1c-0.2-0.2-0.1-0.5,0.1-0.7c0.2-0.2,0.5-0.1,0.7,0.1
				c1.9,2.3,5.1,3.7,8.6,3.7h6.5c3.9,0,7.4-1.7,9.1-4.4c0.1-0.2,0.4-0.3,0.6-0.1c0.2,0.1,0.3,0.4,0.1,0.6
				C345.7,274.5,341.9,276.3,337.7,276.3z"/>
		</g>
	</g>
</g>
</svg>
