<svg class="svg-icon" style="width: 1em; height: 1em;vertical-align: middle;fill: currentColor;overflow: hidden;" viewBox="0 0 1024 1024" version="1.1" xmlns="http://www.w3.org/2000/svg"><path d="M301.18 771.22c1.3-18.9 16.3-33.9 35.1-35.1h527c18.9 1.3 33.9 16.3 35.1 35.1v61.5c-1.3 18.8-16.3 33.8-35.1 35.1h-527c-18.8-1.3-33.8-16.3-35.1-35.1v-61.5z m0-193.3c1.3-18.9 16.3-33.9 35.1-35.1h527c18.9 1.3 33.9 16.3 35.1 35.1v61.5c-1.3 18.8-16.3 33.8-35.1 35.1h-527c-18.8-1.3-33.8-16.3-35.1-35.1v-61.5z m61.5-202c1.3-18.9 16.3-33.9 35.1-35.1h527c18.9 1.3 33.9 16.3 35.2 35.1v61.5c-1.3 18.9-16.3 33.9-35.1 35.1h-527c-18.8-1.3-33.8-16.3-35.1-35.1v-61.5z m-131.7-193.2c-1.7-17.7 11.2-33.4 28.9-35.1 2.1-0.2 4.2-0.2 6.2 0h527c18.9 1.3 33.9 16.3 35.1 35.1v61.5c-1.3 18.9-16.3 33.9-35.1 35.1h-527c-18.8-1.3-33.8-16.3-35.1-35.1v-61.5z" fill="#84E9CA" /><path d="M64.08 577.92c0 164.9 133.7 298.6 298.6 298.6s298.6-133.7 298.6-298.6c0-164.9-133.7-298.6-298.6-298.6-164.9 0-298.6 133.7-298.6 298.6z" fill="#1EDEB8" /><path d="M382.18 602.82c0.3-16.1 11.7-29.9 27.4-33.3 42.9-29.3 53.8-87.8 24.6-130.6-29.3-42.9-87.8-53.8-130.6-24.6-25.6 17.5-40.9 46.5-41 77.5 0.3 31.2 15.9 60.3 41.8 77.7 15.6 3.5 26.6 17.4 26.5 33.3 0.1 2.6-0.1 5.2-0.9 7.7h0.9v26.5h51.2v-28.1h0.9c-0.6-2-0.8-4-0.8-6.1z" fill="#FFFFFF" /><path d="M262.68 637.02h187.9c4.7 0 8.5-3.8 8.5-8.5s-3.8-8.5-8.5-8.5h-187.9c-4.7 0-8.5 3.8-8.5 8.5-0.1 4.6 3.7 8.5 8.5 8.5z m217.7 25.6h-247.6c-7 0.2-12.6 5.8-12.8 12.8v17.1c0.2 7 5.8 12.7 12.8 12.8h247.6c7-0.2 12.7-5.8 12.8-12.8v-17.1c-0.2-7-5.8-12.6-12.8-12.8z m-21.4 59.8h-205c-4.7 0-8.5 3.8-8.5 8.5s3.8 8.5 8.5 8.5h205c4.7 0 8.5-3.8 8.5-8.5 0.1-4.7-3.7-8.5-8.5-8.5z" fill="#FFFFFF" /></svg>